# xmcd
#
# Track frame offsets: 
#        150
#        21344
#        37620
#        65390
#        81171
#        98970
#        116863
#        134715
#        154714
#        175931
#        192168
#        213602
#        229129
#        249572
#
# Disc length: 3630 seconds
#
# Revision: 0
# Processed by: cddbd v1.5.2PL0 Copyright (c) Steve Scherf et al.
# Submitted via: ExactAudioCopy v1.0b4
#
DISCID=c20e2c0e
DTITLE=Eddie Cotton - One At A Time
DYEAR=2015
DGENRE=Blues
TTITLE0=One At A Time
TTITLE1=Be Careful
TTITLE2=Better Deal
TTITLE3=Catch I Wanted
TTITLE4=Dead End Street
TTITLE5=Fair Weather Lover
TTITLE6=Filling Me With Pleasure
TTITLE7=Hard Race To Win
TTITLE8=Je Ne Sais Quio
TTITLE9=Mississippi
TTITLE10=My Money
TTITLE11=Ego At Your Door
TTITLE12=Race To The Dollar
TTITLE13=War Is Over
EXTD=
EXTT0=
EXTT1=
EXTT2=
EXTT3=
EXTT4=
EXTT5=
EXTT6=
EXTT7=
EXTT8=
EXTT9=
EXTT10=
EXTT11=
EXTT12=
EXTT13=
PLAYORDER=
